{
  "accessors": [
    {
      "bufferView": 2,
      "componentType": 5126,
      "count": 394,
      "max": [
        40.54004669189453,
        64.06836700439453,
        32.9231071472168
      ],
      "min": [
        -30.29990577697754,
        21.21502113342285,
        -34.41896057128906
      ],
      "type": "VEC3"
    },
    {
      "bufferView": 2,
      "byteOffset": 4728,
      "componentType": 5126,
      "count": 394,
      "max": [
        0.9958966970443726,
        0.9941341280937195,
        0.9804186820983887
      ],
      "min": [
        -0.9987365007400513,
        -0.9138140678405762,
        -0.9706579446792603
      ],
      "type": "VEC3"
    },
    {
      "bufferView": 1,
      "componentType": 5126,
      "count": 394,
      "max": [
        0.9008393287658691,
        0.9781229496002197
      ],
      "min": [
        0.042073749005794525,
        0.03233996033668518
      ],
      "type": "VEC2"
    },
    {
      "bufferView": 1,
      "byteOffset": 3152,
      "componentType": 5126,
      "count": 394,
      "max": [
        0.9008393287658691,
        0.9781229496002197
      ],
      "min": [
        0.042073749005794525,
        0.03233996033668518
      ],
      "type": "VEC2"
    },
    {
      "bufferView": 0,
      "componentType": 5125,
      "count": 1068,
      "type": "SCALAR"
    },
    {
      "bufferView": 2,
      "byteOffset": 9456,
      "componentType": 5126,
      "count": 310,
      "max": [
        46.157371520996094,
        48.63388442993164,
        18.85591697692871
      ],
      "min": [
        -49.578182220458984,
        -44.08838653564453,
        -63.682518005371094
      ],
      "type": "VEC3"
    },
    {
      "bufferView": 2,
      "byteOffset": 13176,
      "componentType": 5126,
      "count": 310,
      "max": [
        0.9960557222366333,
        0.9940915107727051,
        0.9963290691375732
      ],
      "min": [
        -0.8618409037590027,
        -0.9878436326980591,
        -0.9656052589416504
      ],
      "type": "VEC3"
    },
    {
      "bufferView": 1,
      "byteOffset": 6304,
      "componentType": 5126,
      "count": 310,
      "max": [
        0.9250373244285583,
        0.9460002779960632
      ],
      "min": [
        0.029795438051223755,
        0.036870867013931274
      ],
      "type": "VEC2"
    },
    {
      "bufferView": 1,
      "byteOffset": 8784,
      "componentType": 5126,
      "count": 310,
      "max": [
        0.9250373244285583,
        0.9460002779960632
      ],
      "min": [
        0.029795438051223755,
        0.036870867013931274
      ],
      "type": "VEC2"
    },
    {
      "bufferView": 0,
      "byteOffset": 4272,
      "componentType": 5125,
      "count": 960,
      "type": "SCALAR"
    },
    {
      "bufferView": 2,
      "byteOffset": 16896,
      "componentType": 5126,
      "count": 310,
      "max": [
        46.157371520996094,
        48.63388442993164,
        18.85591697692871
      ],
      "min": [
        -49.578182220458984,
        -44.08838653564453,
        -63.682518005371094
      ],
      "type": "VEC3"
    },
    {
      "bufferView": 2,
      "byteOffset": 20616,
      "componentType": 5126,
      "count": 310,
      "max": [
        0.9960557222366333,
        0.9940915107727051,
        0.9963290691375732
      ],
      "min": [
        -0.8618409037590027,
        -0.9878436326980591,
        -0.9656052589416504
      ],
      "type": "VEC3"
    },
    {
      "bufferView": 1,
      "byteOffset": 11264,
      "componentType": 5126,
      "count": 310,
      "max": [
        0.9250373244285583,
        0.9460002779960632
      ],
      "min": [
        0.029795438051223755,
        0.036870867013931274
      ],
      "type": "VEC2"
    },
    {
      "bufferView": 1,
      "byteOffset": 13744,
      "componentType": 5126,
      "count": 310,
      "max": [
        0.9250373244285583,
        0.9460002779960632
      ],
      "min": [
        0.029795438051223755,
        0.036870867013931274
      ],
      "type": "VEC2"
    },
    {
      "bufferView": 0,
      "byteOffset": 8112,
      "componentType": 5125,
      "count": 960,
      "type": "SCALAR"
    }
  ],
  "asset": {
    "extras": {
      "author": "wilsonghm99 (https://sketchfab.com/wilsonghm99)",
      "license": "CC-BY-4.0 (http://creativecommons.org/licenses/by/4.0/)",
      "source": "https://sketchfab.com/3d-models/geranium-game-asset-8dd8f987f9d64dc3a6f17d9e880d0563",
      "title": "Geranium Game Asset"
    },
    "generator": "Sketchfab-12.65.0",
    "version": "2.0"
  },
  "bufferViews": [
    {
      "buffer": 0,
      "byteLength": 11952,
      "name": "floatBufferViews",
      "target": 34963
    },
    {
      "buffer": 0,
      "byteLength": 16224,
      "byteOffset": 11952,
      "byteStride": 8,
      "name": "floatBufferViews",
      "target": 34962
    },
    {
      "buffer": 0,
      "byteLength": 24336,
      "byteOffset": 28176,
      "byteStride": 12,
      "name": "floatBufferViews",
      "target": 34962
    }
  ],
  "buffers": [
    {
      "byteLength": 52512,
      "uri": "scene.bin"
    }
  ],
  "images": [
    {
      "uri": "textures/Geranium_baseColor.png"
    }
  ],
  "materials": [
    {
      "alphaCutoff": 0.6218877114,
      "alphaMode": "MASK",
      "doubleSided": true,
      "name": "Geranium",
      "pbrMetallicRoughness": {
        "baseColorTexture": {
          "index": 0
        },
        "metallicFactor": 0.0
      }
    }
  ],
  "meshes": [
    {
      "name": "Geranium_Geranium_0",
      "primitives": [
        {
          "attributes": {
            "NORMAL": 1,
            "POSITION": 0,
            "TEXCOORD_0": 2,
            "TEXCOORD_1": 3
          },
          "indices": 4,
          "material": 0,
          "mode": 4
        }
      ]
    },
    {
      "name": "flor1.002_Geranium_0",
      "primitives": [
        {
          "attributes": {
            "NORMAL": 6,
            "POSITION": 5,
            "TEXCOORD_0": 7,
            "TEXCOORD_1": 8
          },
          "indices": 9,
          "material": 0,
          "mode": 4
        }
      ]
    },
    {
      "name": "flor1.001_Geranium_0",
      "primitives": [
        {
          "attributes": {
            "NORMAL": 11,
            "POSITION": 10,
            "TEXCOORD_0": 12,
            "TEXCOORD_1": 13
          },
          "indices": 14,
          "material": 0,
          "mode": 4
        }
      ]
    }
  ],
  "nodes": [
    {
      "children": [
        1
      ],
      "matrix": [
        1.0,
        0.0,
        0.0,
        0.0,
        0.0,
        2.220446049250313e-16,
        -1.0,
        0.0,
        0.0,
        1.0,
        2.220446049250313e-16,
        0.0,
        0.0,
        0.0,
        0.0,
        1.0
      ],
      "name": "Sketchfab_model"
    },
    {
      "children": [
        2
      ],
      "matrix": [
        1.0,
        0.0,
        0.0,
        0.0,
        0.0,
        0.0,
        1.0,
        0.0,
        0.0,
        -1.0,
        0.0,
        0.0,
        0.0,
        0.0,
        0.0,
        1.0
      ],
      "name": "Geranium.fbx"
    },
    {
      "children": [
        3,
        6,
        8,
        10,
        12
      ],
      "name": "RootNode"
    },
    {
      "children": [
        4
      ],
      "matrix": [
        -29.08647719990347,
        -5.518906457566863,
        -95.51711910171437,
        0.0,
        56.63930913109449,
        79.46723428563203,
        -21.83912397841966,
        0.0,
        77.11008775993375,
        -60.45246356562044,
        -19.98834696773717,
        0.0,
        407.6245422363281,
        590.38623046875,
        -100.54539489746094,
        1.0
      ],
      "name": "Light"
    },
    {
      "children": [
        5
      ],
      "matrix": [
        1.0,
        0.0,
        0.0,
        0.0,
        0.0,
        2.220446049250313e-16,
        1.0,
        0.0,
        0.0,
        -1.0,
        2.220446049250313e-16,
        0.0,
        0.0,
        0.0,
        0.0,
        1.0
      ],
      "name": "Object_4"
    },
    {
      "name": "Object_5"
    },
    {
      "children": [
        7
      ],
      "matrix": [
        -65.15583280329096,
        -44.52713576570858,
        -61.41703047373549,
        0.0,
        -32.40134137821245,
        89.53957451233616,
        -30.542088974418615,
        0.0,
        68.59205472129975,
        -1.0718647115348782e-05,
        -72.7676336239627,
        0.0,
        735.88916015625,
        495.8309326171875,
        692.5791015625,
        1.0
      ],
      "name": "Camera"
    },
    {
      "name": "Object_7"
    },
    {
      "children": [
        9
      ],
      "matrix": [
        4.063349723815918,
        0.0,
        0.0,
        0.0,
        0.0,
        4.063349723815864,
        6.620037201668191e-07,
        0.0,
        0.0,
        -6.620037201668191e-07,
        4.063349723815864,
        0.0,
        0.0,
        -89.34599304199219,
        0.0,
        1.0
      ],
      "name": "Geranium"
    },
    {
      "mesh": 0,
      "name": "Geranium_Geranium_0"
    },
    {
      "children": [
        11
      ],
      "matrix": [
        0.3109534245976504,
        0.417006000826534,
        -0.7339359667458487,
        0.0,
        -0.710576451769906,
        -0.29290484273414186,
        -0.4674784637259764,
        0.0,
        -0.4556724240941194,
        0.7413238851515166,
        0.22814470946268078,
        0.0,
        48.396785736083984,
        177.1287384033203,
        4.9886040687561035,
        1.0
      ],
      "name": "flor1.002"
    },
    {
      "mesh": 1,
      "name": "flor1.002_Geranium_0"
    },
    {
      "children": [
        13
      ],
      "matrix": [
        -0.804418149043111,
        0.3899127050564822,
        -0.10063686541329367,
        0.0,
        -0.3179133530577058,
        -0.47692658725253473,
        0.6933397119159433,
        0.0,
        0.24716546462991332,
        0.6555588591752872,
        0.5642697862914663,
        0.0,
        -1.3427574634552002,
        166.2309112548828,
        -33.75918197631836,
        1.0
      ],
      "name": "flor1.001"
    },
    {
      "mesh": 2,
      "name": "flor1.001_Geranium_0"
    }
  ],
  "samplers": [
    {
      "magFilter": 9729,
      "minFilter": 9987,
      "wrapS": 10497,
      "wrapT": 10497
    }
  ],
  "scene": 0,
  "scenes": [
    {
      "name": "Sketchfab_Scene",
      "nodes": [
        0
      ]
    }
  ],
  "textures": [
    {
      "sampler": 0,
      "source": 0
    }
  ]
}
