{
	"asset":{
		"generator":"Khronos glTF Blender I/O v4.2.57",
		"version":"2.0"
	},
	"scene":0,
	"scenes":[
		{
			"name":"Scene",
			"nodes":[
				10
			]
		}
	],
	"nodes":[
		{
			"name":"Object_7"
		},
		{
			"children":[
				0
			],
			"name":"Camera.001",
			"rotation":[
				-0.21255725622177124,
				0.9047970175743103,
				-0.08438936620950699,
				0.3592217266559601
			],
			"scale":[
				100.00000762939453,
				100.00000762939453,
				100
			],
			"translation":[
				735.88916015625,
				495.8309326171875,
				692.5791015625
			]
		},
		{
			"mesh":0,
			"name":"Leaf186_1__ac_bigtree_leafA.001_ac_bigtree_leafB_0"
		},
		{
			"mesh":1,
			"name":"tree_trunk"
		},
		{
			"children":[
				2,
				3
			],
			"name":"Leaf186_1__ac_bigtree_leafA.001",
			"scale":[
				92.49906158447266,
				92.49906158447266,
				92.49906158447266
			]
		},
		{
			"name":"Object_5"
		},
		{
			"children":[
				5
			],
			"name":"Object_4",
			"rotation":[
				0.70710688829422,
				0,
				0,
				0.7071066498756409
			]
		},
		{
			"children":[
				6
			],
			"name":"Light.001",
			"rotation":[
				0.16907571256160736,
				0.7558803558349609,
				-0.27217134833335876,
				0.5709474682807922
			],
			"scale":[
				100.00000762939453,
				100,
				100
			],
			"translation":[
				407.6245422363281,
				590.38623046875,
				-100.54539489746094
			]
		},
		{
			"children":[
				1,
				4,
				7
			],
			"name":"RootNode"
		},
		{
			"children":[
				8
			],
			"name":"3a7dde4a33e9457aaec2e539dd61cd76.fbx",
			"rotation":[
				0.70710688829422,
				0,
				0,
				0.7071066498756409
			]
		},
		{
			"children":[
				9
			],
			"name":"Sketchfab_model",
			"rotation":[
				-0.70710688829422,
				0,
				0,
				0.7071066498756409
			]
		}
	],
	"materials":[
		{
			"doubleSided":true,
			"name":"ac_bigtree_leafB",
			"pbrMetallicRoughness":{
				"baseColorTexture":{
					"index":0
				},
				"metallicFactor":0,
				"roughnessFactor":0.6000000238418579
			}
		},
		{
			"doubleSided":true,
			"name":"ac_dooretc",
			"pbrMetallicRoughness":{
				"baseColorTexture":{
					"index":1
				},
				"metallicFactor":0,
				"roughnessFactor":0.6729999780654907
			}
		}
	],
	"meshes":[
		{
			"name":"Leaf186_1__ac_bigtree_leafA.001_ac_bigtree_leafB_0",
			"primitives":[
				{
					"attributes":{
						"POSITION":0,
						"NORMAL":1,
						"TEXCOORD_0":2
					},
					"indices":3,
					"material":0
				}
			]
		},
		{
			"name":"Leaf186_1__ac_bigtree_leafA.001_ac_dooretc_0",
			"primitives":[
				{
					"attributes":{
						"POSITION":4,
						"NORMAL":5,
						"TEXCOORD_0":6
					},
					"indices":7,
					"material":1
				}
			]
		}
	],
	"textures":[
		{
			"sampler":0,
			"source":0
		},
		{
			"sampler":0,
			"source":1
		}
	],
	"images":[
		{
			"mimeType":"image/png",
			"name":"ac_bigtree_leafB_baseColor",
			"uri":"ac_bigtree_leafB_baseColor.png"
		},
		{
			"mimeType":"image/png",
			"name":"ac_dooretc_baseColor",
			"uri":"ac_dooretc_baseColor.png"
		}
	],
	"accessors":[
		{
			"bufferView":0,
			"componentType":5126,
			"count":3324,
			"max":[
				2.0536718368530273,
				4.629985332489014,
				1.7546825408935547
			],
			"min":[
				-1.9234451055526733,
				1.349268913269043,
				-2.171339511871338
			],
			"type":"VEC3"
		},
		{
			"bufferView":1,
			"componentType":5126,
			"count":3324,
			"type":"VEC3"
		},
		{
			"bufferView":2,
			"componentType":5126,
			"count":3324,
			"type":"VEC2"
		},
		{
			"bufferView":3,
			"componentType":5123,
			"count":11232,
			"type":"SCALAR"
		},
		{
			"bufferView":4,
			"componentType":5126,
			"count":143,
			"max":[
				0.8121444582939148,
				1.7929631471633911,
				0.861124575138092
			],
			"min":[
				-0.9535209536552429,
				-0.29614925384521484,
				-0.9990575909614563
			],
			"type":"VEC3"
		},
		{
			"bufferView":5,
			"componentType":5126,
			"count":143,
			"type":"VEC3"
		},
		{
			"bufferView":6,
			"componentType":5126,
			"count":143,
			"type":"VEC2"
		},
		{
			"bufferView":7,
			"componentType":5123,
			"count":609,
			"type":"SCALAR"
		}
	],
	"bufferViews":[
		{
			"buffer":0,
			"byteLength":39888,
			"byteOffset":0,
			"target":34962
		},
		{
			"buffer":0,
			"byteLength":39888,
			"byteOffset":39888,
			"target":34962
		},
		{
			"buffer":0,
			"byteLength":26592,
			"byteOffset":79776,
			"target":34962
		},
		{
			"buffer":0,
			"byteLength":22464,
			"byteOffset":106368,
			"target":34963
		},
		{
			"buffer":0,
			"byteLength":1716,
			"byteOffset":128832,
			"target":34962
		},
		{
			"buffer":0,
			"byteLength":1716,
			"byteOffset":130548,
			"target":34962
		},
		{
			"buffer":0,
			"byteLength":1144,
			"byteOffset":132264,
			"target":34962
		},
		{
			"buffer":0,
			"byteLength":1218,
			"byteOffset":133408,
			"target":34963
		}
	],
	"samplers":[
		{
			"magFilter":9729,
			"minFilter":9987
		}
	],
	"buffers":[
		{
			"byteLength":134628,
			"uri":"treetest.bin"
		}
	]
}
