{
	"asset":{
		"generator":"Khronos glTF Blender I/O v4.2.57",
		"version":"2.0"
	},
	"extensionsUsed":[
		"KHR_materials_clearcoat"
	],
	"scene":0,
	"scenes":[
		{
			"name":"Scene",
			"nodes":[
				13
			]
		}
	],
	"nodes":[
		{
			"name":"Object_7"
		},
		{
			"children":[
				0
			],
			"name":"Camera.001",
			"rotation":[
				-0.21255725622177124,
				0.9047970175743103,
				-0.08438936620950699,
				0.3592217266559601
			],
			"scale":[
				100.00000762939453,
				100.00000762939453,
				100
			],
			"translation":[
				735.88916015625,
				495.8309326171875,
				692.5791015625
			]
		},
		{
			"mesh":0,
			"name":"Leaf186_1__ac_bigtree_leafA.001_ac_bigtree_leafA.001_0"
		},
		{
			"mesh":1,
			"name":"Leaf186_1__ac_bigtree_leafA.001_ac_bigtree_leafA.002_0"
		},
		{
			"mesh":2,
			"name":"Leaf186_1__ac_bigtree_leafA.001_ac_bigtree_leafA_0"
		},
		{
			"mesh":3,
			"name":"Leaf186_1__ac_bigtree_leafA.001_ac_bigtree_leafB_0"
		},
		{
			"mesh":4,
			"name":"Leaf186_1__ac_bigtree_leafA.001_ac_dooretc_0"
		},
		{
			"children":[
				2,
				3,
				4,
				5,
				6
			],
			"name":"Leaf186_1__ac_bigtree_leafA.001",
			"scale":[
				92.49906158447266,
				92.49906158447266,
				92.49906158447266
			]
		},
		{
			"name":"Object_5"
		},
		{
			"children":[
				8
			],
			"name":"Object_4",
			"rotation":[
				0.70710688829422,
				0,
				0,
				0.7071066498756409
			]
		},
		{
			"children":[
				9
			],
			"name":"Light.001",
			"rotation":[
				0.16907571256160736,
				0.7558803558349609,
				-0.27217134833335876,
				0.5709474682807922
			],
			"scale":[
				100.00000762939453,
				100,
				100
			],
			"translation":[
				407.6245422363281,
				590.38623046875,
				-100.54539489746094
			]
		},
		{
			"children":[
				1,
				7,
				10
			],
			"name":"RootNode"
		},
		{
			"children":[
				11
			],
			"name":"3a7dde4a33e9457aaec2e539dd61cd76.fbx",
			"rotation":[
				0.70710688829422,
				0,
				0,
				0.7071066498756409
			]
		},
		{
			"children":[
				12
			],
			"name":"Sketchfab_model",
			"rotation":[
				-0.70710688829422,
				0,
				0,
				0.7071066498756409
			]
		}
	],
	"materials":[
		{
			"alphaMode":"BLEND",
			"doubleSided":true,
			"name":"ac_bigtree_leafA.001",
			"pbrMetallicRoughness":{
				"baseColorTexture":{
					"index":0
				},
				"metallicFactor":0,
				"roughnessFactor":0.6000000238418579
			}
		},
		{
			"alphaMode":"BLEND",
			"doubleSided":true,
			"extensions":{
				"KHR_materials_clearcoat":{
					"clearcoatRoughnessFactor":1
				}
			},
			"name":"ac_bigtree_leafA.002",
			"pbrMetallicRoughness":{
				"baseColorTexture":{
					"index":1
				},
				"metallicFactor":0.33070865273475647,
				"roughnessFactor":0.5212598443031311
			}
		},
		{
			"alphaMode":"BLEND",
			"doubleSided":true,
			"name":"ac_bigtree_leafA",
			"pbrMetallicRoughness":{
				"baseColorTexture":{
					"index":2
				},
				"metallicFactor":0,
				"roughnessFactor":0.6000000238418579
			}
		},
		{
			"doubleSided":true,
			"name":"ac_bigtree_leafB",
			"pbrMetallicRoughness":{
				"baseColorTexture":{
					"index":3
				},
				"metallicFactor":0,
				"roughnessFactor":0.6000000238418579
			}
		},
		{
			"doubleSided":true,
			"name":"ac_dooretc",
			"pbrMetallicRoughness":{
				"baseColorTexture":{
					"index":4
				},
				"metallicFactor":0,
				"roughnessFactor":0.6729999780654907
			}
		}
	],
	"meshes":[
		{
			"name":"Leaf186_1__ac_bigtree_leafA.001_ac_bigtree_leafA.001_0",
			"primitives":[
				{
					"attributes":{
						"POSITION":0,
						"NORMAL":1,
						"TEXCOORD_0":2
					},
					"indices":3,
					"material":0
				}
			]
		},
		{
			"name":"Leaf186_1__ac_bigtree_leafA.001_ac_bigtree_leafA.002_0",
			"primitives":[
				{
					"attributes":{
						"POSITION":4,
						"NORMAL":5,
						"TEXCOORD_0":6
					},
					"indices":3,
					"material":1
				}
			]
		},
		{
			"name":"Leaf186_1__ac_bigtree_leafA.001_ac_bigtree_leafA_0",
			"primitives":[
				{
					"attributes":{
						"POSITION":7,
						"NORMAL":8,
						"TEXCOORD_0":9
					},
					"indices":3,
					"material":2
				}
			]
		},
		{
			"name":"Leaf186_1__ac_bigtree_leafA.001_ac_bigtree_leafB_0",
			"primitives":[
				{
					"attributes":{
						"POSITION":10,
						"NORMAL":11,
						"TEXCOORD_0":12
					},
					"indices":13,
					"material":3
				}
			]
		},
		{
			"name":"Leaf186_1__ac_bigtree_leafA.001_ac_dooretc_0",
			"primitives":[
				{
					"attributes":{
						"POSITION":14,
						"NORMAL":15,
						"TEXCOORD_0":16
					},
					"indices":17,
					"material":4
				}
			]
		}
	],
	"textures":[
		{
			"sampler":0,
			"source":0
		},
		{
			"sampler":0,
			"source":0
		},
		{
			"sampler":0,
			"source":0
		},
		{
			"sampler":0,
			"source":1
		},
		{
			"sampler":0,
			"source":2
		}
	],
	"images":[
		{
			"mimeType":"image/png",
			"name":"ac_bigtree_leafA_baseColor",
			"uri":"ac_bigtree_leafA_baseColor.png"
		},
		{
			"mimeType":"image/png",
			"name":"ac_bigtree_leafB_baseColor",
			"uri":"ac_bigtree_leafB_baseColor.png"
		},
		{
			"mimeType":"image/png",
			"name":"ac_dooretc_baseColor",
			"uri":"ac_dooretc_baseColor.png"
		}
	],
	"accessors":[
		{
			"bufferView":0,
			"componentType":5126,
			"count":467,
			"max":[
				2.2018089294433594,
				4.648585796356201,
				1.861130714416504
			],
			"min":[
				-2.0571327209472656,
				1.260200023651123,
				-2.3053770065307617
			],
			"type":"VEC3"
		},
		{
			"bufferView":1,
			"componentType":5126,
			"count":467,
			"type":"VEC3"
		},
		{
			"bufferView":2,
			"componentType":5126,
			"count":467,
			"type":"VEC2"
		},
		{
			"bufferView":3,
			"componentType":5123,
			"count":1128,
			"type":"SCALAR"
		},
		{
			"bufferView":4,
			"componentType":5126,
			"count":467,
			"max":[
				2.2018089294433594,
				4.648585796356201,
				1.861130714416504
			],
			"min":[
				-2.0571327209472656,
				1.260200023651123,
				-2.3053770065307617
			],
			"type":"VEC3"
		},
		{
			"bufferView":5,
			"componentType":5126,
			"count":467,
			"type":"VEC3"
		},
		{
			"bufferView":6,
			"componentType":5126,
			"count":467,
			"type":"VEC2"
		},
		{
			"bufferView":7,
			"componentType":5126,
			"count":467,
			"max":[
				2.2018089294433594,
				4.648585796356201,
				1.861130714416504
			],
			"min":[
				-2.0571327209472656,
				1.260200023651123,
				-2.3053770065307617
			],
			"type":"VEC3"
		},
		{
			"bufferView":8,
			"componentType":5126,
			"count":467,
			"type":"VEC3"
		},
		{
			"bufferView":9,
			"componentType":5126,
			"count":467,
			"type":"VEC2"
		},
		{
			"bufferView":10,
			"componentType":5126,
			"count":3324,
			"max":[
				2.0536718368530273,
				4.629985332489014,
				1.7546825408935547
			],
			"min":[
				-1.9234451055526733,
				1.349268913269043,
				-2.171339511871338
			],
			"type":"VEC3"
		},
		{
			"bufferView":11,
			"componentType":5126,
			"count":3324,
			"type":"VEC3"
		},
		{
			"bufferView":12,
			"componentType":5126,
			"count":3324,
			"type":"VEC2"
		},
		{
			"bufferView":13,
			"componentType":5123,
			"count":11232,
			"type":"SCALAR"
		},
		{
			"bufferView":14,
			"componentType":5126,
			"count":143,
			"max":[
				0.8121444582939148,
				1.7929631471633911,
				0.861124575138092
			],
			"min":[
				-0.9535209536552429,
				-0.29614925384521484,
				-0.9990575909614563
			],
			"type":"VEC3"
		},
		{
			"bufferView":15,
			"componentType":5126,
			"count":143,
			"type":"VEC3"
		},
		{
			"bufferView":16,
			"componentType":5126,
			"count":143,
			"type":"VEC2"
		},
		{
			"bufferView":17,
			"componentType":5123,
			"count":609,
			"type":"SCALAR"
		}
	],
	"bufferViews":[
		{
			"buffer":0,
			"byteLength":5604,
			"byteOffset":0,
			"target":34962
		},
		{
			"buffer":0,
			"byteLength":5604,
			"byteOffset":5604,
			"target":34962
		},
		{
			"buffer":0,
			"byteLength":3736,
			"byteOffset":11208,
			"target":34962
		},
		{
			"buffer":0,
			"byteLength":2256,
			"byteOffset":14944,
			"target":34963
		},
		{
			"buffer":0,
			"byteLength":5604,
			"byteOffset":17200,
			"target":34962
		},
		{
			"buffer":0,
			"byteLength":5604,
			"byteOffset":22804,
			"target":34962
		},
		{
			"buffer":0,
			"byteLength":3736,
			"byteOffset":28408,
			"target":34962
		},
		{
			"buffer":0,
			"byteLength":5604,
			"byteOffset":32144,
			"target":34962
		},
		{
			"buffer":0,
			"byteLength":5604,
			"byteOffset":37748,
			"target":34962
		},
		{
			"buffer":0,
			"byteLength":3736,
			"byteOffset":43352,
			"target":34962
		},
		{
			"buffer":0,
			"byteLength":39888,
			"byteOffset":47088,
			"target":34962
		},
		{
			"buffer":0,
			"byteLength":39888,
			"byteOffset":86976,
			"target":34962
		},
		{
			"buffer":0,
			"byteLength":26592,
			"byteOffset":126864,
			"target":34962
		},
		{
			"buffer":0,
			"byteLength":22464,
			"byteOffset":153456,
			"target":34963
		},
		{
			"buffer":0,
			"byteLength":1716,
			"byteOffset":175920,
			"target":34962
		},
		{
			"buffer":0,
			"byteLength":1716,
			"byteOffset":177636,
			"target":34962
		},
		{
			"buffer":0,
			"byteLength":1144,
			"byteOffset":179352,
			"target":34962
		},
		{
			"buffer":0,
			"byteLength":1218,
			"byteOffset":180496,
			"target":34963
		}
	],
	"samplers":[
		{
			"magFilter":9729,
			"minFilter":9987
		}
	],
	"buffers":[
		{
			"byteLength":181716,
			"uri":"untitled.bin"
		}
	]
}
